<svg width="48" height="48" viewBox="0 0 48 48" fill="none" xmlns="http://www.w3.org/2000/svg">
<path d="M10.8964 48V15.6145H0.607066V48H10.8964ZM5.75306 11.1901C9.34113 11.1901 11.5745 8.70331 11.5745 5.5956C11.5077 2.41781 9.34127 0 5.82115 0C2.30158 0 0 2.41786 0 5.5956C0 8.70346 2.23285 11.1901 5.68589 11.1901H5.75274H5.75306ZM16.5915 48H26.8808V29.9144C26.8808 28.9464 26.9477 27.9795 27.2194 27.2876C27.9632 25.3537 29.6562 23.3508 32.4986 23.3508C36.2219 23.3508 37.7114 26.3207 37.7114 30.6743V47.9998H48.0001V29.4302C48.0001 19.4827 42.9239 14.8542 36.1541 14.8542C30.6034 14.8542 28.1663 18.1 26.8124 20.3108H26.8811V15.6138H16.5917C16.7268 18.6527 16.5917 47.9994 16.5917 47.9994L16.5915 48Z" fill="white"/>
</svg>
