<svg width="26" height="26" viewBox="0 0 26 26" fill="none" xmlns="http://www.w3.org/2000/svg">
<path fill-rule="evenodd" clip-rule="evenodd" d="M12.8012 0C9.3249 0 8.88863 0.0152002 7.52328 0.0773341C6.1606 0.139735 5.23045 0.35547 4.41658 0.672007C3.5747 0.998944 2.86056 1.43628 2.14909 2.14802C1.43708 2.8595 0.999744 3.57364 0.67174 4.41525C0.354404 5.22939 0.138401 6.1598 0.0770675 7.52194C0.0160002 8.88729 0 9.32383 0 12.8001C0 16.2764 0.0154668 16.7114 0.0773341 18.0767C0.140001 19.4394 0.355737 20.3695 0.672007 21.1834C0.99921 22.0253 1.43655 22.7394 2.14829 23.4509C2.8595 24.1629 3.57364 24.6013 4.41498 24.9283C5.22939 25.2448 6.1598 25.4605 7.52221 25.5229C8.88756 25.5851 9.32357 25.6003 12.7996 25.6003C16.2762 25.6003 16.7111 25.5851 18.0765 25.5229C19.4391 25.4605 20.3703 25.2448 21.1848 24.9283C22.0264 24.6013 22.7394 24.1629 23.4506 23.4509C24.1627 22.7394 24.6 22.0253 24.928 21.1837C25.2427 20.3695 25.4587 19.4391 25.5227 18.077C25.584 16.7116 25.6 16.2764 25.6 12.8001C25.6 9.32383 25.584 8.88756 25.5227 7.52221C25.4587 6.15953 25.2427 5.22939 24.928 4.41551C24.6 3.57364 24.1627 2.8595 23.4506 2.14802C22.7386 1.43602 22.0266 0.998677 21.184 0.672007C20.3679 0.35547 19.4373 0.139735 18.0746 0.0773341C16.7092 0.0152002 16.2746 0 12.7972 0H12.8012ZM11.6529 2.30665C11.9937 2.30612 12.3739 2.30665 12.8011 2.30665C16.2188 2.30665 16.6239 2.31892 17.9735 2.38026C19.2215 2.43732 19.8988 2.64586 20.35 2.82106C20.9474 3.05306 21.3732 3.3304 21.821 3.7784C22.269 4.22641 22.5463 4.65308 22.7788 5.25042C22.9541 5.70109 23.1629 6.37843 23.2197 7.62644C23.281 8.97579 23.2943 9.38113 23.2943 12.7972C23.2943 16.2132 23.281 16.6185 23.2197 17.9679C23.1626 19.2159 22.9541 19.8932 22.7788 20.3439C22.5468 20.9412 22.269 21.3666 21.821 21.8143C21.373 22.2623 20.9476 22.5397 20.35 22.7717C19.8994 22.9477 19.2215 23.1557 17.9735 23.2127C16.6241 23.2741 16.2188 23.2874 12.8011 23.2874C9.38324 23.2874 8.97817 23.2741 7.62882 23.2127C6.38081 23.1551 5.70347 22.9466 5.252 22.7714C4.65466 22.5394 4.22799 22.2621 3.77998 21.8141C3.33198 21.3661 3.05464 20.9404 2.82211 20.3428C2.64691 19.8922 2.4381 19.2148 2.3813 17.9668C2.31997 16.6175 2.3077 16.2121 2.3077 12.794C2.3077 9.3758 2.31997 8.97259 2.3813 7.62324C2.43837 6.37523 2.64691 5.69789 2.82211 5.24669C3.05411 4.64935 3.33198 4.22267 3.77998 3.77467C4.22799 3.32667 4.65466 3.04933 5.252 2.81679C5.7032 2.64079 6.38081 2.43279 7.62882 2.37546C8.80964 2.32212 9.26724 2.30612 11.6529 2.30345V2.30665ZM19.6338 4.43202C18.7857 4.43202 18.0977 5.11922 18.0977 5.9675C18.0977 6.81551 18.7857 7.50351 19.6338 7.50351C20.4818 7.50351 21.1698 6.81551 21.1698 5.9675C21.1698 5.11949 20.4818 4.43202 19.6338 4.43202ZM12.8012 6.2267C9.17105 6.2267 6.22782 9.16993 6.22782 12.8001C6.22782 16.4303 9.17105 19.3722 12.8012 19.3722C16.4314 19.3722 19.3736 16.4303 19.3736 12.8001C19.3736 9.16993 16.4314 6.2267 12.8012 6.2267ZM12.8012 8.53339C15.1575 8.53339 17.0679 10.4435 17.0679 12.8001C17.0679 15.1564 15.1575 17.0668 12.8012 17.0668C10.4446 17.0668 8.53446 15.1564 8.53446 12.8001C8.53446 10.4435 10.4446 8.53339 12.8012 8.53339Z" fill="white"/>
</svg>
