<svg width="525" height="525" viewBox="0 0 525 525" fill="none" xmlns="http://www.w3.org/2000/svg">
<path d="M462.981 385.817C462.981 377.244 459.98 369.956 453.978 363.954L387.103 297.079C381.102 291.078 373.814 288.077 365.24 288.077C356.238 288.077 348.522 291.506 342.091 298.365C342.734 299.008 344.771 300.991 348.2 304.313C351.63 307.636 353.934 309.94 355.113 311.226C356.292 312.512 357.899 314.548 359.935 317.335C361.972 320.121 363.365 322.854 364.115 325.533C364.865 328.213 365.24 331.16 365.24 334.375C365.24 342.949 362.24 350.236 356.238 356.238C350.236 362.24 342.949 365.24 334.375 365.24C331.16 365.24 328.213 364.865 325.533 364.115C322.854 363.365 320.121 361.972 317.335 359.935C314.548 357.899 312.512 356.292 311.226 355.113C309.94 353.934 307.636 351.63 304.313 348.2C300.991 344.771 299.008 342.734 298.365 342.091C291.292 348.736 287.755 356.56 287.755 365.562C287.755 374.136 290.756 381.423 296.758 387.425L362.99 453.978C368.777 459.766 376.065 462.659 384.853 462.659C393.426 462.659 400.714 459.873 406.716 454.3L453.978 407.359C459.98 401.357 462.981 394.177 462.981 385.817ZM236.956 159.15C236.956 150.576 233.955 143.288 227.954 137.287L161.722 70.7332C155.72 64.7316 148.432 61.7308 139.859 61.7308C131.499 61.7308 124.212 64.6244 117.996 70.4117L70.7332 117.353C64.7316 123.354 61.7308 130.535 61.7308 138.894C61.7308 147.468 64.7316 154.756 70.7332 160.757L137.608 227.632C143.395 233.419 150.683 236.313 159.471 236.313C168.474 236.313 176.19 232.991 182.62 226.346C181.977 225.703 179.941 223.72 176.511 220.398C173.082 217.076 170.778 214.772 169.599 213.486C168.42 212.2 166.812 210.163 164.776 207.377C162.74 204.59 161.347 201.857 160.596 199.178C159.846 196.499 159.471 193.552 159.471 190.337C159.471 181.763 162.472 174.475 168.474 168.474C174.475 162.472 181.763 159.471 190.337 159.471C193.552 159.471 196.499 159.846 199.178 160.596C201.857 161.347 204.59 162.74 207.377 164.776C210.163 166.812 212.2 168.42 213.486 169.599C214.772 170.778 217.076 173.082 220.398 176.511C223.72 179.941 225.703 181.977 226.346 182.62C233.419 175.976 236.956 168.152 236.956 159.15ZM524.712 385.817C524.712 411.538 515.602 433.294 497.383 451.085L450.12 498.026C432.33 515.816 410.574 524.712 384.853 524.712C358.917 524.712 337.054 515.602 319.264 497.383L253.032 430.829C235.241 413.039 226.346 391.283 226.346 365.562C226.346 339.198 235.777 316.799 254.639 298.365L226.346 270.072C207.913 288.934 185.621 298.365 159.471 298.365C133.75 298.365 111.887 289.363 93.8822 271.358L27.0072 204.483C9.0024 186.478 0 164.615 0 138.894C0 113.173 9.10958 91.4173 27.3287 73.6268L74.5913 26.6857C92.3818 8.89523 114.138 0 139.859 0C165.794 0 187.657 9.10958 205.448 27.3287L271.68 93.8822C289.47 111.673 298.365 133.428 298.365 159.15C298.365 185.514 288.934 207.913 270.072 226.346L298.365 254.639C316.799 235.777 339.091 226.346 365.24 226.346C390.962 226.346 412.825 235.349 430.829 253.353L497.704 320.228C515.709 338.233 524.712 360.096 524.712 385.817Z" fill="#FFFEFE"/>
</svg>
